<?xml version="1.0" encoding="UTF-8"?>
<svg id="Layer_1" data-name="Layer 1" xmlns="http://www.w3.org/2000/svg" viewBox="0 0 1500 1500">
  <defs>
    <style>
      .cls-1 {
        fill: #fff;
      }
    </style>
  </defs>
  <path class="cls-1" d="m915.2,142.22c-68.78,0-124.48,55.78-124.48,124.59,0,14.8,2.64,29.03,7.34,42.21,3.36,9.29,7.77,18.07,13.15,26.2l23.94-47.37c-.04-.11-.07-.24-.09-.35-.24-.97-.48-1.93-.7-2.9-.04-.22-.11-.46-.13-.7-.24-1.08-.46-2.15-.64-3.23-.75-4.52-1.14-9.16-1.14-13.86,0-45.7,37.05-82.84,82.75-82.84s82.75,37.14,82.75,82.84c0,30-16.01,56.31-39.97,70.83l-16.1,50.8c56-12.21,97.93-62.06,97.93-121.62,0-68.8-55.8-124.59-124.61-124.59Z"/>
  <path class="cls-1" d="m335.47,752.83c0,41.27-33.47,74.71-74.73,74.71s-74.71-33.45-74.71-74.71,33.45-74.73,74.71-74.73c11.13,0,21.7,2.44,31.21,6.81l-21.76,17.37c-3.05-.57-6.22-.88-9.44-.88-28.4,0-51.41,23.02-51.41,51.43s23.02,51.41,51.41,51.41c26.44,0,48.23-19.94,51.1-45.59l22.97-15.86c.44,3.29.66,6.63.66,10.04Z"/>
  <path class="cls-1" d="m1313.98,590.78c0,41.26-33.45,74.71-74.71,74.71-8.83,0-17.33-1.52-25.19-4.35l20.2-19.19c1.65.15,3.32.24,4.99.24,28.4,0,51.41-23.02,51.41-51.41s-23.02-51.43-51.41-51.43c-24.97,0-45.79,17.81-50.45,41.4l-24.2,13.77c-.07-1.23-.09-2.48-.09-3.73,0-41.27,33.45-74.73,74.73-74.73s74.71,33.47,74.71,74.73Z"/>
  <path class="cls-1" d="m865.73,1076.83c0,155.14-125.82,280.95-280.93,280.95s-280.95-125.82-280.95-280.95,122.28-277.44,274.54-280.86c2.13-.04,4.26-.07,6.41-.07,6.02,0,11.97.18,17.9.66,1.74.11,3.47.22,5.2.37.99.09,2,.15,2.99.26.44.02.88.07,1.3.11,1.34.13,2.68.26,4,.42,2.99.33,5.93.7,8.89,1.12,1.47.22,2.94.44,4.39.66,1.47.24,2.94.48,4.39.75,1.47.24,2.92.51,4.37.79,2.9.55,5.78,1.16,8.65,1.8,1.43.33,2.86.66,4.28,1.01,1.43.35,2.85.7,4.26,1.05,2.09.55,4.17,1.1,6.22,1.69,1.08.29,2.15.59,3.21.92,1.25.37,2.48.75,3.71,1.14,1.23.37,2.44.77,3.67,1.16,5.71,1.87,11.33,3.91,16.87,6.15,1.16.46,2.33.92,3.47,1.41,1.38.57,2.75,1.16,4.11,1.74,1.21.55,2.42,1.08,3.6,1.63.13.04.24.09.35.15,1.27.57,2.53,1.16,3.8,1.76,2.59,1.23,5.16,2.48,7.73,3.8,1.27.64,2.55,1.3,3.8,1.98,1.05.55,2.09,1.12,3.14,1.69,3.97,2.17,7.91,4.44,11.77,6.81,1.23.75,2.44,1.49,3.65,2.26l-21.85,12.43-54.9,31.21-25.83,14.69c-15.04-3.95-30.86-6.06-47.13-6.06-10.74,0-21.3.94-31.49,2.75-9.68,1.65-19.11,4.04-28.22,7.14-73.13,24.82-125.68,94.04-125.66,175.49,0,102.36,82.93,185.4,185.38,185.4s181.71-79.5,185.16-178.81l85.67-81.45c6.59,23.83,10.1,48.95,10.1,74.87Z"/>
  <path class="cls-1" d="m800.06,357.28l-29.21,57.8-442.65,305.59-19.52,13.48-40.83,28.18c-.2.09-.37.29-.57.37-1.89,1.23-4.15,1.98-6.5,1.98-6.59,0-11.88-5.27-11.88-11.86,0-3.32,1.32-6.24,3.49-8.3l2.55-1.98,37.66-30.06,18.58-14.82,468.92-374.31c5.12,12.23,11.84,23.63,19.96,33.93Z"/>
  <g>
    <path class="cls-1" d="m611.7,1184.22c-.53.15-1.05.29-1.6.42-.57.13-1.16.26-1.73.4-.83.2-1.69.37-2.55.53-1.65.31-3.29.59-4.94.86-.18.02-.35.04-.55.07-1.6.22-3.21.42-4.83.59-.07,0-.13,0-.2.02-.81.07-1.63.13-2.44.2-.9.07-1.8.11-2.7.15-1.78.09-3.56.13-5.36.13-14.21,0-27.83-2.68-40.3-7.58,1.58.61,3.18,1.19,4.79,1.73.79.26,1.56.51,2.35.75.79.26,1.6.51,2.42.72.81.24,1.65.46,2.46.68,1.65.44,3.29.83,4.96,1.19.83.18,1.69.35,2.53.51,1.67.33,3.36.61,5.07.83,1.01.15,2,.29,2.99.4.7.09,1.41.15,2.11.22,1.01.11,2.02.18,3.03.24.75.07,1.52.11,2.28.13.75.04,1.49.07,2.26.09,1.01.02,2.02.04,3.03.04,1.21,0,2.39-.02,3.58-.07.94-.02,1.89-.07,2.81-.13.94-.04,1.89-.11,2.81-.2h.18c.66-.07,1.32-.11,1.95-.2.79-.07,1.58-.15,2.37-.26.7-.07,1.43-.18,2.13-.29.86-.11,1.71-.26,2.57-.4,2.88-.48,5.71-1.08,8.52-1.78Z"/>
    <path class="cls-1" d="m643.52,1170.65c-1.95,1.25-3.95,2.44-6,3.51,2.04-1.12,4.04-2.28,6-3.51Z"/>
    <path class="cls-1" d="m666.14,1151.83c-2.99,3.32-6.26,6.43-9.68,9.33l9.09-8.76.59-.57Z"/>
    <path class="cls-1" d="m489.33,1020.74l-.66,1.34-5.18,10.19c-1.89,4.15-3.47,8.45-4.81,12.85,2.57-8.63,6.17-16.8,10.65-24.38Z"/>
    <path class="cls-1" d="m611.7,1184.22c-.53.15-1.05.29-1.6.42-.57.13-1.16.26-1.73.4-.83.2-1.69.37-2.55.53-1.65.31-3.29.59-4.94.86-.18.02-.35.04-.55.07-1.6.22-3.21.42-4.83.59-.07,0-.13,0-.2.02-.81.07-1.63.13-2.44.2-.9.07-1.8.11-2.7.15-1.78.09-3.56.13-5.36.13-14.21,0-27.83-2.68-40.3-7.58,1.58.61,3.18,1.19,4.79,1.73.79.26,1.56.51,2.35.75.79.26,1.6.51,2.42.72.81.24,1.65.46,2.46.68,1.65.44,3.29.83,4.96,1.19.83.18,1.69.35,2.53.51,1.67.33,3.36.61,5.07.83,1.01.15,2,.29,2.99.4.7.09,1.41.15,2.11.22,1.01.11,2.02.18,3.03.24.75.07,1.52.11,2.28.13.75.04,1.49.07,2.26.09,1.01.02,2.02.04,3.03.04,1.21,0,2.39-.02,3.58-.07.94-.02,1.89-.07,2.81-.13.94-.04,1.89-.11,2.81-.2h.18c.66-.07,1.32-.11,1.95-.2.79-.07,1.58-.15,2.37-.26.7-.07,1.43-.18,2.13-.29.86-.11,1.71-.26,2.57-.4,2.88-.48,5.71-1.08,8.52-1.78Z"/>
    <path class="cls-1" d="m643.52,1170.65c-1.95,1.25-3.95,2.44-6,3.51,2.04-1.12,4.04-2.28,6-3.51Z"/>
    <path class="cls-1" d="m656.37,1161.23l-.9.88-.29.18-.4.37v-.09s.11-.09.18-.13c.02-.04.09-.09.13-.11.44-.33.86-.7,1.27-1.1Z"/>
    <path class="cls-1" d="m666.14,1151.83c-2.99,3.32-6.26,6.43-9.68,9.33l9.09-8.76.59-.57Z"/>
  </g>
  <g>
    <path class="cls-1" d="m775.62,841.07l-.18.51c-.09-.11-.2-.18-.31-.24l.48-.26Z"/>
    <path class="cls-1" d="m775.62,841.07l-.18.51c-.09-.11-.2-.18-.31-.24l.48-.26Z"/>
    <path class="cls-1" d="m955.35,266.81c0,.7-.02,1.43-.07,2.11,0,.29-.02.57-.04.83-.2,2.92-.7,5.78-1.47,8.45l-.2.57-13.81,43.64-8.06,25.5-13.73,43.35-6.94,21.94-125.66,397.04-29.41,16.73c-42.41-29.25-90.99-46.89-142.55-51.61l195.21-386.35h.02l7.34-14.54,10.37-20.51,20.49-40.56,12.01-23.76,19.22-38.01.2-.46,2.46-4.72c2.57-4.41,5.97-8.28,9.99-11.4.11-.09.24-.2.37-.29.42-.33.86-.64,1.32-.94.31-.22.61-.44.94-.64.04-.04.11-.09.18-.11.51-.35,1.01-.66,1.54-.97,1.16-.7,2.37-1.32,3.62-1.89.33-.13.66-.29.99-.42.29-.13.57-.26.88-.37.51-.2.99-.37,1.49-.55.83-.31,1.69-.57,2.55-.79.42-.13.86-.24,1.27-.33.44-.11.86-.2,1.3-.29,1.38-.29,2.81-.51,4.26-.64.26-.02.53-.04.79-.07.42-.02.83-.07,1.27-.07.57-.02,1.14-.04,1.71-.04,22.25,0,40.15,17.99,40.15,40.14Z"/>
  </g>
  <g>
    <path class="cls-1" d="m489.33,1020.74l-.66,1.34-5.18,10.19c-1.89,4.15-3.47,8.45-4.81,12.85,2.57-8.63,6.17-16.8,10.65-24.38Z"/>
    <path class="cls-1" d="m656.37,1161.23l-.9.88-.29.18s-.07.02-.09.04c.44-.33.86-.7,1.27-1.1Z"/>
    <path class="cls-1" d="m775.62,841.07l-.18.51c-.09-.11-.2-.18-.31-.24l.48-.26Z"/>
    <path class="cls-1" d="m1251.08,590.78c0,4.24-2.17,7.82-5.38,9.99l-17.99,17.11-16.69,15.86-17.2,16.36-16.05,15.26-312.47,297.09v.02l-17.17,16.32-79.41,75.5-20.62,19.61-33.21,31.56v.02l-48.64,46.23-.11.11-.59.57-9.09,8.76-.09.07c-.42.4-.83.77-1.27,1.1-.04.02-.11.07-.13.11-.07.04-.13.09-.18.13-.09.07-.18.13-.26.22-.51.42-1.03.81-1.54,1.23-.26.2-.53.4-.79.59-.92.7-1.84,1.41-2.79,2.11-.75.51-1.49,1.05-2.26,1.56-.55.37-1.12.75-1.67,1.12-.64.42-1.3.83-1.95,1.25-1.95,1.23-3.95,2.39-6,3.51-1.95,1.05-3.95,2.06-6,3.03-.88.42-1.78.81-2.68,1.21-.55.24-1.1.48-1.65.68-1.76.75-3.54,1.43-5.34,2.06-.42.15-.86.31-1.27.44-.94.33-1.89.64-2.83.92-.94.31-1.89.59-2.86.86-.81.24-1.63.46-2.46.68-.11.04-.2.07-.31.09-.07.02-.15.04-.22.04-.07.02-.15.04-.22.04-2.81.7-5.64,1.3-8.52,1.78-.86.13-1.71.29-2.57.4-.7.11-1.43.22-2.13.29-.79.11-1.58.2-2.37.26-.64.09-1.3.13-1.95.2h-.18c-.92.09-1.87.15-2.81.2-.92.07-1.87.11-2.81.13-1.19.04-2.37.07-3.58.07-1.01,0-2.02-.02-3.03-.04-.77-.02-1.52-.04-2.26-.09-.77-.02-1.54-.07-2.28-.13-1.01-.07-2.02-.13-3.03-.24-.7-.07-1.41-.13-2.11-.22-.99-.11-1.98-.24-2.99-.4-1.69-.24-3.4-.53-5.07-.83-.83-.15-1.69-.33-2.53-.51-1.67-.35-3.32-.75-4.96-1.19-.81-.22-1.65-.44-2.46-.68-.81-.22-1.63-.46-2.42-.72-.79-.24-1.56-.48-2.35-.75-1.6-.55-3.21-1.12-4.79-1.73-1.78-.7-3.54-1.43-5.27-2.22-1.67-.77-3.32-1.56-4.92-2.39-.79-.4-1.56-.81-2.31-1.21-.79-.44-1.56-.88-2.35-1.32-1.54-.88-3.05-1.8-4.55-2.75,0,0,0-.02-.02-.02-1.32-.86-2.64-1.76-3.93-2.66-.15-.11-.33-.22-.48-.33-1.43-1.03-2.85-2.09-4.24-3.16-.7-.57-1.41-1.12-2.09-1.69s-1.36-1.14-2.04-1.71c-1.34-1.16-2.64-2.37-3.93-3.58-.64-.61-1.25-1.25-1.89-1.87-.64-.61-1.25-1.25-1.87-1.91-1.21-1.27-2.39-2.57-3.56-3.89-1.74-2.02-3.43-4.11-5.01-6.24-.55-.72-1.05-1.43-1.58-2.15-.51-.72-1.01-1.45-1.52-2.2-.4-.59-.79-1.19-1.19-1.78-1.54-2.39-2.99-4.83-4.37-7.34-.51-.94-1.01-1.89-1.49-2.85-.24-.53-.51-1.03-.75-1.56-.59-1.19-1.14-2.39-1.69-3.6-.4-.9-.79-1.82-1.16-2.75-.2-.46-.4-.94-.57-1.43-.09-.22-.18-.42-.24-.64-.35-.83-.66-1.69-.94-2.55-.24-.64-.46-1.27-.68-1.91-.29-.86-.57-1.71-.83-2.57-.31-.94-.57-1.89-.83-2.81-.42-1.45-.79-2.9-1.14-4.37-.31-1.32-.59-2.64-.86-3.97-.15-.72-.29-1.45-.42-2.17-.18-.92-.33-1.82-.46-2.75-.42-2.75-.75-5.53-.94-8.35-.09-.94-.13-1.87-.18-2.81-.07-.94-.09-1.91-.11-2.86-.02-.94-.04-1.89-.04-2.86,0-1.08.02-2.17.07-3.25,0-.51.02-.99.04-1.49.02-.53.04-1.03.07-1.56,0-.04,0-.11.02-.15.04-.79.09-1.56.15-2.33.07-.99.15-1.95.26-2.92.24-2.35.57-4.7.99-7.01.15-1.1.37-2.2.59-3.27.2-.97.4-1.93.61-2.88.15-.64.31-1.27.46-1.89.18-.77.37-1.52.59-2.26.24-.9.48-1.8.77-2.68,1.34-4.39,2.92-8.7,4.81-12.85l5.18-10.19.66-1.34s.02-.04.04-.07c9.36-15.83,22.55-29.12,38.28-38.59l5.67-3.21,101.31-57.63,24.84-14.12,22.97-13.07,51.17-29.12,20.91-11.88,20.62-11.73c.11.07.22.13.31.24l.18-.51v-.02l28.09-15.97,346.35-197.02,19.26-10.94,20.62-11.75,20.03-11.4,21.87-12.43.2-.11c1.98-1.6,4.52-2.55,7.27-2.55,6.5,0,11.77,5.29,11.77,11.88Z"/>
    <path class="cls-1" d="m478.68,1045.12c1.34-4.39,2.92-8.7,4.81-12.85l5.18-10.19.66-1.34c-4.48,7.58-8.08,15.75-10.65,24.38Zm124.5,140.88c-.86.13-1.71.29-2.57.4-.7.11-1.43.22-2.13.29-.79.11-1.58.2-2.37.26-.64.09-1.3.13-1.95.2h-.18c-.92.09-1.87.15-2.81.2-.92.07-1.87.11-2.81.13-1.19.04-2.37.07-3.58.07-1.01,0-2.02-.02-3.03-.04-.77-.02-1.52-.04-2.26-.09-.77-.02-1.54-.07-2.28-.13-1.01-.07-2.02-.13-3.03-.24-.7-.07-1.41-.13-2.11-.22-.99-.11-1.98-.24-2.99-.4-1.71-.22-3.4-.51-5.07-.83-.83-.15-1.69-.33-2.53-.51-1.67-.35-3.32-.75-4.96-1.19-.81-.22-1.65-.44-2.46-.68-.81-.22-1.63-.46-2.42-.72-.79-.24-1.56-.48-2.35-.75-1.6-.55-3.21-1.12-4.79-1.73,12.47,4.9,26.09,7.58,40.3,7.58,1.8,0,3.58-.04,5.36-.13.9-.04,1.8-.09,2.7-.15.81-.07,1.63-.13,2.44-.2.07-.02.13-.02.2-.02,1.63-.18,3.23-.37,4.83-.59.2-.02.37-.04.55-.07,1.65-.26,3.29-.55,4.94-.86.86-.15,1.71-.33,2.55-.53.57-.13,1.16-.26,1.73-.4.55-.13,1.08-.26,1.6-.42-2.81.7-5.64,1.3-8.52,1.78Zm34.35-11.84c2.04-1.08,4.04-2.26,6-3.51-1.95,1.23-3.95,2.39-6,3.51Zm17.57-11.84s-.11.07-.13.11c-.07.04-.13.09-.18.13v.09l.4-.37.29-.18.9-.88c-.42.4-.83.77-1.27,1.1Zm10.45-9.93l-9.09,8.76c3.43-2.9,6.7-6.02,9.68-9.33l-.59.57Zm-186.87-107.28c1.34-4.39,2.92-8.7,4.81-12.85l5.18-10.19.66-1.34c-4.48,7.58-8.08,15.75-10.65,24.38Zm124.5,140.88c-.86.13-1.71.29-2.57.4-.7.11-1.43.22-2.13.29-.79.11-1.58.2-2.37.26-.64.09-1.3.13-1.95.2h-.18c-.92.09-1.87.15-2.81.2-.92.07-1.87.11-2.81.13-1.19.04-2.37.07-3.58.07-1.01,0-2.02-.02-3.03-.04-.77-.02-1.52-.04-2.26-.09-.77-.02-1.54-.07-2.28-.13-1.01-.07-2.02-.13-3.03-.24-.7-.07-1.41-.13-2.11-.22-.99-.11-1.98-.24-2.99-.4-1.71-.22-3.4-.51-5.07-.83-.83-.15-1.69-.33-2.53-.51-1.67-.35-3.32-.75-4.96-1.19-.81-.22-1.65-.44-2.46-.68-.81-.22-1.63-.46-2.42-.72-.79-.24-1.56-.48-2.35-.75-1.6-.55-3.21-1.12-4.79-1.73,12.47,4.9,26.09,7.58,40.3,7.58,1.8,0,3.58-.04,5.36-.13.9-.04,1.8-.09,2.7-.15.81-.07,1.63-.13,2.44-.2.07-.02.13-.02.2-.02,1.63-.18,3.23-.37,4.83-.59.2-.02.37-.04.55-.07,1.65-.26,3.29-.55,4.94-.86.86-.15,1.71-.33,2.55-.53.57-.13,1.16-.26,1.73-.4.55-.13,1.08-.26,1.6-.42-2.81.7-5.64,1.3-8.52,1.78Zm34.35-11.84c2.04-1.08,4.04-2.26,6-3.51-1.95,1.23-3.95,2.39-6,3.51Zm17.57-11.84s-.11.07-.13.11c-.07.04-.13.09-.18.13v.09l.4-.37.29-.18.9-.88c-.42.4-.83.77-1.27,1.1Zm10.45-9.93l-9.09,8.76c3.43-2.9,6.7-6.02,9.68-9.33l-.59.57Zm109.59-311.06c.11.07.22.13.31.24l.18-.51-.48.26Z"/>
  </g>
  <path class="cls-1" d="m655.18,1162.28l-.4.37v-.09s.11-.09.18-.13c.02-.04.09-.09.13-.11.02-.02.07-.02.09-.04Z"/>
</svg>