<?xml version="1.0" encoding="UTF-8"?>
<svg id="Layer_1" data-name="Layer 1" xmlns="http://www.w3.org/2000/svg" viewBox="0 0 1500 1500">
  <defs>
    <style>
      .cls-1 {
        fill: #5bd9d9;
      }

      .cls-2 {
        fill: #1cafd3;
      }

      .cls-3 {
        fill: #7468c0;
      }

      .cls-4 {
        fill: #1a1a1a;
      }
    </style>
  </defs>
  <path class="cls-3" d="m915.22,142.22c-68.8,0-124.5,55.79-124.5,124.59,0,14.8,2.64,29.03,7.35,42.22,8.39,23.18,23.37,43.16,42.88,57.68,20.74,15.46,46.37,24.6,74.27,24.6,68.8,0,124.59-55.79,124.59-124.5,0-68.8-55.79-124.59-124.59-124.59Zm0,207.34c-13.2,0-25.73-3.11-36.85-8.67-23.28-11.59-40.24-33.74-44.77-60.22-.75-4.52-1.13-9.14-1.13-13.85,0-45.71,37.04-82.84,82.75-82.84,45.7,0,82.74,37.13,82.74,82.84,0,45.62-37.04,82.75-82.74,82.75Z"/>
  <path class="cls-3" d="m260.74,678.1c-41.27,0-74.72,33.45-74.72,74.72,0,41.27,33.45,74.72,74.72,74.72,41.27,0,74.72-33.45,74.72-74.72,0-41.27-33.45-74.72-74.72-74.72Zm0,126.15c-28.4,0-51.42-23.02-51.42-51.42,0-28.4,23.02-51.42,51.42-51.42,28.4,0,51.42,23.02,51.42,51.42,0,28.4-23.02,51.42-51.42,51.42Z"/>
  <path class="cls-3" d="m1239.26,516.06c-41.27,0-74.72,33.45-74.72,74.72s33.45,74.72,74.72,74.72c41.27,0,74.72-33.45,74.72-74.72,0-41.27-33.45-74.72-74.72-74.72Zm0,126.15c-28.4,0-51.42-23.02-51.42-51.42,0-28.4,23.02-51.42,51.42-51.42,28.4,0,51.42,23.02,51.42,51.42,0,28.4-23.02,51.42-51.42,51.42Z"/>
  <path class="cls-3" d="m768.29,864.23c-45.05-38.92-102.44-63.8-165.59-67.67-5.94-.47-11.88-.66-17.91-.66-155.22,0-280.94,125.81-280.94,280.94,0,155.13,125.72,280.94,280.94,280.94,155.13,0,280.94-125.81,280.94-280.94,0-85.01-37.79-161.25-97.45-212.61Zm-183.49,397.99c-102.44,0-185.38-83.03-185.38-185.38,0-91.61,66.44-167.76,153.9-182.64,10.18-1.79,20.74-2.73,31.48-2.73,62.01,0,116.86,30.44,150.41,77.19,21.96,30.44,34.87,67.86,34.87,108.19,0,102.35-82.93,185.38-185.28,185.38Z"/>
  <path class="cls-1" d="m840.95,366.71l-573.1,395.64c-.18.09-.38.28-.56.38-1.89,1.22-4.15,1.98-6.51,1.98-6.59,0-11.87-5.28-11.87-11.87,0-3.3,1.32-6.22,3.49-8.29l2.54-1.98,543.13-433.52c8.39,23.18,23.37,43.16,42.88,57.68Z"/>
  <path class="cls-1" d="m955.36,266.81c0,12.54-5.75,23.75-14.79,31.1l-.66.47-3.96,2.73-57.58,39.77c-23.28-11.59-40.24-33.74-44.77-60.22l56.08-44.77,1.04-.85c6.78-5.28,15.26-8.39,24.5-8.39,22.24,0,40.15,18,40.15,40.15Z"/>
  <path class="cls-2" d="m735.21,968.65l-44.58,140.71h-.1c-13.76,45.24-55.98,78.22-105.74,78.22-61.17,0-110.74-49.57-110.74-110.74,0-15.83,3.3-30.91,9.42-44.58l5.18-10.18,64.65-127.89c10.18-1.79,20.74-2.73,31.48-2.73,62.01,0,116.86,30.44,150.41,77.19Z"/>
  <path class="cls-2" d="m955.36,266.81c0,3.96-.57,7.82-1.6,11.4l-.19.57-185.29,585.45c-45.05-38.92-102.44-63.8-165.59-67.67L878.08,251.64l.19-.47,2.45-4.71c6.97-11.87,19.79-19.79,34.49-19.79,22.24,0,40.15,18,40.15,40.15Z"/>
  <path class="cls-1" d="m1251.08,590.79c0,4.24-2.17,7.82-5.37,9.99l-580.17,551.61-10.08,9.71-.29.19c-.19.09-.28.19-.38.28-19.04,15.55-43.45,24.97-70.02,24.97-61.17,0-110.74-49.57-110.74-110.74,0-40.15,21.49-75.4,53.62-94.72l5.66-3.21,698.53-397.33.19-.09c1.98-1.6,4.52-2.54,7.26-2.54,6.5,0,11.78,5.28,11.78,11.87Z"/>
  <path class="cls-4" d="m655.18,1162.28l-.38.38v-.09c.1-.09.19-.19.38-.28Z"/>
</svg>