<?xml version="1.0" standalone="no"?>
<!DOCTYPE svg PUBLIC "-//W3C//DTD SVG 20010904//EN"
 "http://www.w3.org/TR/2001/REC-SVG-20010904/DTD/svg10.dtd">
<svg version="1.0" xmlns="http://www.w3.org/2000/svg"
 width="512.000000pt" height="512.000000pt" viewBox="0 0 512.000000 512.000000"
 preserveAspectRatio="xMidYMid meet">

<g transform="translate(0.000000,512.000000) scale(0.100000,-0.100000)"
fill="#000000" stroke="none">
<path d="M2360 5114 c-248 -28 -397 -58 -577 -115 -625 -200 -1138 -621 -1466
-1204 -144 -256 -249 -575 -298 -910 -18 -120 -18 -530 0 -650 87 -590 331
-1084 731 -1485 401 -400 896 -644 1485 -731 119 -18 519 -18 645 -1 587 83
1092 333 1497 743 401 406 643 900 725 1479 17 126 17 526 -1 645 -87 589
-331 1084 -731 1485 -393 392 -878 635 -1447 725 -93 15 -484 28 -563 19z
m490 -340 c784 -103 1452 -610 1765 -1339 120 -280 176 -556 176 -871 0 -190
-10 -292 -45 -464 -177 -859 -867 -1549 -1726 -1726 -171 -35 -274 -45 -460
-45 -186 0 -289 10 -460 45 -859 177 -1549 867 -1726 1726 -35 171 -45 274
-45 460 0 186 10 289 45 460 123 597 496 1124 1025 1448 429 264 946 373 1451
306z"/>
<path d="M2270 4460 c-223 -38 -361 -81 -545 -169 -177 -84 -358 -208 -487
-332 -73 -71 -94 -120 -82 -187 10 -56 76 -118 135 -127 63 -9 105 11 198 93
242 217 522 350 836 398 171 26 452 14 605 -25 274 -71 495 -188 700 -371 117
-105 162 -119 247 -80 71 32 107 114 83 193 -14 50 -98 134 -235 237 -274 205
-547 318 -905 375 -133 21 -413 19 -550 -5z"/>
<path d="M1245 1466 c-81 -36 -118 -139 -80 -220 28 -58 220 -220 377 -318
312 -193 646 -288 1018 -288 500 0 965 184 1322 522 73 70 95 118 82 186 -9
47 -66 106 -120 122 -66 20 -107 2 -219 -96 -316 -273 -663 -405 -1065 -405
-398 0 -759 136 -1057 399 -50 44 -104 87 -121 96 -37 19 -96 20 -137 2z"/>
</g>
</svg>
